<svg width="80" height="80" viewBox="0 0 80 80" fill="none" xmlns="http://www.w3.org/2000/svg">
<rect x="8" y="17" width="55" height="40" rx="2" fill="#D76D57"/>
<rect x="50" y="27" width="5" height="10" rx="1" fill="black"/>
<rect x="23" y="27" width="5" height="10" rx="1" fill="black"/>
<path d="M13 56H18V65C18 65.5523 17.5523 66 17 66H14C13.4477 66 13 65.5523 13 65V56Z" fill="#D76D57"/>
<path d="M23 56H28V65C28 65.5523 27.5523 66 27 66H24C23.4477 66 23 65.5523 23 65V56Z" fill="#D76D57"/>
<path d="M53 56H58V65C58 65.5523 57.5523 66 57 66H54C53.4477 66 53 65.5523 53 65V56Z" fill="#D76D57"/>
<path d="M43 56H48V65C48 65.5523 47.5523 66 47 66H44C43.4477 66 43 65.5523 43 65V56Z" fill="#D76D57"/>
<rect x="42" y="42" width="30" height="30" rx="6" fill="black"/>
<g filter="url(#filter0_d_7_24)">
<path d="M61.1311 37.9375C61.3232 37.4197 61.8988 37.1558 62.4165 37.3479L69.9168 40.1312C70.4346 40.3233 70.6985 40.8988 70.5064 41.4166L67.7231 48.9168C67.531 49.4346 66.9555 49.6986 66.4377 49.5064L58.9375 46.7232C58.4197 46.5311 58.1557 45.9555 58.3478 45.4378L61.1311 37.9375Z" fill="#D76D57"/>
</g>
<g filter="url(#filter1_d_7_24)">
<path d="M41.1311 39.9375C41.3232 39.4197 41.8988 39.1558 42.4165 39.3479L49.9168 42.1312C50.4346 42.3233 50.6985 42.8988 50.5064 43.4166L47.7231 50.9168C47.531 51.4346 46.9555 51.6986 46.4377 51.5064L38.9375 48.7232C38.4197 48.5311 38.1557 47.9555 38.3478 47.4378L41.1311 39.9375Z" fill="#D76D57"/>
</g>
<path d="M57 56L53.25 59.4641V52.5359L57 56Z" fill="white"/>
<path d="M55.5 56L51.75 59.4641V52.5359L55.5 56Z" fill="black"/>
<line x1="59" y1="58.5" x2="63" y2="58.5" stroke="white"/>
<defs>
<filter id="filter0_d_7_24" x="57.7852" y="36.7852" width="13.2842" height="13.284" filterUnits="userSpaceOnUse" color-interpolation-filters="sRGB">
<feFlood flood-opacity="0" result="BackgroundImageFix"/>
<feColorMatrix in="SourceAlpha" type="matrix" values="0 0 0 0 0 0 0 0 0 0 0 0 0 0 0 0 0 0 127 0" result="hardAlpha"/>
<feOffset/>
<feGaussianBlur stdDeviation="0.25"/>
<feComposite in2="hardAlpha" operator="out"/>
<feColorMatrix type="matrix" values="0 0 0 0 0 0 0 0 0 0 0 0 0 0 0 0 0 0 0.25 0"/>
<feBlend mode="normal" in2="BackgroundImageFix" result="effect1_dropShadow_7_24"/>
<feBlend mode="normal" in="SourceGraphic" in2="effect1_dropShadow_7_24" result="shape"/>
</filter>
<filter id="filter1_d_7_24" x="37.7852" y="38.7852" width="13.2842" height="13.284" filterUnits="userSpaceOnUse" color-interpolation-filters="sRGB">
<feFlood flood-opacity="0" result="BackgroundImageFix"/>
<feColorMatrix in="SourceAlpha" type="matrix" values="0 0 0 0 0 0 0 0 0 0 0 0 0 0 0 0 0 0 127 0" result="hardAlpha"/>
<feOffset/>
<feGaussianBlur stdDeviation="0.25"/>
<feComposite in2="hardAlpha" operator="out"/>
<feColorMatrix type="matrix" values="0 0 0 0 0 0 0 0 0 0 0 0 0 0 0 0 0 0 0.25 0"/>
<feBlend mode="normal" in2="BackgroundImageFix" result="effect1_dropShadow_7_24"/>
<feBlend mode="normal" in="SourceGraphic" in2="effect1_dropShadow_7_24" result="shape"/>
</filter>
</defs>
</svg>
